<svg width="48" height="48" viewBox="0 0 48 48" fill="none" xmlns="http://www.w3.org/2000/svg">
<path fill-rule="evenodd" clip-rule="evenodd" d="M30.372 23.9907L19.5866 34.8235C19.5776 34.8325 19.568 34.8421 19.559 34.8517C19.3165 35.1165 19.3291 35.5337 19.5866 35.7829C19.7157 35.9132 19.8904 35.9858 20.0711 35.9858C20.2465 35.9828 20.4134 35.9096 20.5376 35.7829L31.8075 24.4704C32.0591 24.2033 32.0591 23.7782 31.8075 23.511L20.5376 12.1799C20.2705 11.9211 19.8538 11.9211 19.5866 12.1799C19.5776 12.1895 19.568 12.1985 19.559 12.2081C19.3165 12.4729 19.3291 12.8902 19.5866 13.1393L30.372 23.9907Z" fill="#28A9E0"/>
</svg>
