<svg width="48" height="48" viewBox="0 0 48 48" fill="none" xmlns="http://www.w3.org/2000/svg">
<path fill-rule="evenodd" clip-rule="evenodd" d="M17.628 24.0093L28.4134 13.1765C28.4224 13.1675 28.432 13.1579 28.441 13.1483C28.6835 12.8835 28.6709 12.4663 28.4134 12.2171C28.2843 12.0868 28.1096 12.0142 27.9289 12.0142C27.7535 12.0172 27.5866 12.0904 27.4624 12.2171L16.1925 23.5296C15.9409 23.7967 15.9409 24.2218 16.1925 24.489L27.4624 35.8201C27.7295 36.0789 28.1462 36.0789 28.4134 35.8201C28.4224 35.8105 28.432 35.8015 28.441 35.7919C28.6835 35.5271 28.6709 35.1098 28.4134 34.8607L17.628 24.0093Z" fill="#28A9E0"/>
</svg>
