<svg width="48" height="48" viewBox="0 0 48 48" fill="none" xmlns="http://www.w3.org/2000/svg">
<circle cx="24" cy="24" r="24" transform="rotate(-180 24 24)" fill="white" fill-opacity="0.05"/>
<path fill-rule="evenodd" clip-rule="evenodd" d="M30.372 23.9907L19.5867 34.8234C19.5777 34.8324 19.5681 34.842 19.5591 34.8516C19.3165 35.1164 19.3291 35.5337 19.5867 35.7828C19.7158 35.9131 19.8905 35.9858 20.0712 35.9858C20.2465 35.9828 20.4134 35.9095 20.5377 35.7828L31.8075 24.4704C32.0591 24.2032 32.0591 23.7781 31.8075 23.5109L20.5377 12.1799C20.2705 11.9211 19.8539 11.9211 19.5867 12.1799C19.5777 12.1895 19.5681 12.1985 19.5591 12.2081C19.3165 12.4728 19.3291 12.8901 19.5867 13.1393L30.372 23.9907Z" fill="#28A9E0"/>
</svg>
